<svg id="visual" viewBox="0 0 900 600" width="900" height="600" xmlns="http://www.w3.org/2000/svg" xmlns:xlink="http://www.w3.org/1999/xlink" version="1.1"><rect x="0" y="0" width="900" height="600" fill="#21201E"></rect><path d="M0 527L16.7 522C33.3 517 66.7 507 100 509.3C133.3 511.7 166.7 526.3 200 529C233.3 531.7 266.7 522.3 300 517.5C333.3 512.7 366.7 512.3 400 506.7C433.3 501 466.7 490 500 493.5C533.3 497 566.7 515 600 521.7C633.3 528.3 666.7 523.7 700 518.5C733.3 513.3 766.7 507.7 800 506C833.3 504.3 866.7 506.7 883.3 507.8L900 509L900 601L883.3 601C866.7 601 833.3 601 800 601C766.7 601 733.3 601 700 601C666.7 601 633.3 601 600 601C566.7 601 533.3 601 500 601C466.7 601 433.3 601 400 601C366.7 601 333.3 601 300 601C266.7 601 233.3 601 200 601C166.7 601 133.3 601 100 601C66.7 601 33.3 601 16.7 601L0 601Z" fill="#ff7ac6" stroke-linecap="round" stroke-linejoin="miter"></path></svg>